<svg xmlns="http://www.w3.org/2000/svg" width="1320" height="400" viewBox="0 0 1320 400" role="img">
  <rect width="100%" height="100%" rx="22" fill="#f7faf9"/>
  
  <defs><marker id="arrow" markerWidth="12" markerHeight="12" refX="10" refY="6" orient="auto"><path d="M2,2 L10,6 L2,10 Z" fill="#2a9d8f"/></marker></defs>
  <text x="660" y="52" font-family="Inter, Arial, sans-serif" font-size="30" font-weight="700" fill="#18324a" text-anchor="middle">Explainability audit pipeline</text>

  <rect x="40" y="120" width="185" height="150" rx="18" fill="#ffffff" stroke="#cfd8dc" stroke-width="2"/>
  <text x="132.5" y="158" font-family="Inter, Arial, sans-serif" font-size="21" font-weight="700" fill="#18324a" text-anchor="middle">Image input</text>
  <text x="132.5" y="202" font-family="Inter, Arial, sans-serif" font-size="15" font-weight="500" fill="#61717a" text-anchor="middle">AwA2 RGB image 224</text>
<text x="132.5" y="222" font-family="Inter, Arial, sans-serif" font-size="15" font-weight="500" fill="#61717a" text-anchor="middle">x 224 tensor</text>

  <rect x="260" y="120" width="185" height="150" rx="18" fill="#ffffff" stroke="#cfd8dc" stroke-width="2"/>
  <text x="352.5" y="158" font-family="Inter, Arial, sans-serif" font-size="21" font-weight="700" fill="#18324a" text-anchor="middle">ResNet50</text>
  <text x="352.5" y="202" font-family="Inter, Arial, sans-serif" font-size="15" font-weight="500" fill="#61717a" text-anchor="middle">feature extractor</text>
<text x="352.5" y="222" font-family="Inter, Arial, sans-serif" font-size="15" font-weight="500" fill="#61717a" text-anchor="middle">logits + softmax</text>

  <rect x="480" y="120" width="185" height="150" rx="18" fill="#ffffff" stroke="#cfd8dc" stroke-width="2"/>
  <text x="572.5" y="158" font-family="Inter, Arial, sans-serif" font-size="21" font-weight="700" fill="#18324a" text-anchor="middle">Attribution</text>
  <text x="572.5" y="202" font-family="Inter, Arial, sans-serif" font-size="15" font-weight="500" fill="#61717a" text-anchor="middle">Grad-CAM, IG</text>

  <rect x="700" y="120" width="185" height="150" rx="18" fill="#ffffff" stroke="#cfd8dc" stroke-width="2"/>
  <text x="792.5" y="158" font-family="Inter, Arial, sans-serif" font-size="21" font-weight="700" fill="#18324a" text-anchor="middle">Stress test</text>
  <text x="792.5" y="202" font-family="Inter, Arial, sans-serif" font-size="15" font-weight="500" fill="#61717a" text-anchor="middle">background noise,</text>
<text x="792.5" y="222" font-family="Inter, Arial, sans-serif" font-size="15" font-weight="500" fill="#61717a" text-anchor="middle">color shift, swap</text>

  <rect x="920" y="120" width="185" height="150" rx="18" fill="#ffffff" stroke="#cfd8dc" stroke-width="2"/>
  <text x="1012.5" y="158" font-family="Inter, Arial, sans-serif" font-size="21" font-weight="700" fill="#18324a" text-anchor="middle">Metrics</text>
  <text x="1012.5" y="202" font-family="Inter, Arial, sans-serif" font-size="15" font-weight="500" fill="#61717a" text-anchor="middle">IoU, Spearman,</text>
<text x="1012.5" y="222" font-family="Inter, Arial, sans-serif" font-size="15" font-weight="500" fill="#61717a" text-anchor="middle">deletion,</text>
<text x="1012.5" y="242" font-family="Inter, Arial, sans-serif" font-size="15" font-weight="500" fill="#61717a" text-anchor="middle">insertion</text>

  <rect x="1140" y="120" width="140" height="150" rx="18" fill="#ffffff" stroke="#cfd8dc" stroke-width="2"/>
  <text x="1210.0" y="158" font-family="Inter, Arial, sans-serif" font-size="21" font-weight="700" fill="#18324a" text-anchor="middle">Concepts</text>
  <text x="1210.0" y="202" font-family="Inter, Arial, sans-serif" font-size="15" font-weight="500" fill="#61717a" text-anchor="middle">TCAV + CBM</text>
<path d="M225 195 C 242.5 195, 242.5 195, 260 195" fill="none" stroke="#2a9d8f" stroke-width="4" marker-end="url(#arrow)"/><path d="M445 195 C 462.5 195, 462.5 195, 480 195" fill="none" stroke="#2a9d8f" stroke-width="4" marker-end="url(#arrow)"/><path d="M665 195 C 682.5 195, 682.5 195, 700 195" fill="none" stroke="#2a9d8f" stroke-width="4" marker-end="url(#arrow)"/><path d="M885 195 C 902.5 195, 902.5 195, 920 195" fill="none" stroke="#2a9d8f" stroke-width="4" marker-end="url(#arrow)"/><path d="M1105 195 C 1122.5 195, 1122.5 195, 1140 195" fill="none" stroke="#2a9d8f" stroke-width="4" marker-end="url(#arrow)"/><text x="660" y="340" font-family="Inter, Arial, sans-serif" font-size="20" font-weight="600" fill="#263238" text-anchor="middle">A heatmap becomes credible only when it survives behavioral, stability and concept-level checks.</text>
</svg>