<svg xmlns="http://www.w3.org/2000/svg" width="1500" height="720" viewBox="0 0 1500 720" role="img" aria-labelledby="title desc">
  <title id="title">ResNet50 architecture used in the explainability project</title>
  <desc id="desc">Schematic representation of RGB input preprocessing, ResNet50 downsampling stages, residual skip connections, trainable layers, logits, softmax probabilities and CAM target layer.</desc>
  <defs>
    <linearGradient id="bg" x1="0" x2="1" y1="0" y2="1">
      <stop offset="0" stop-color="#f7fafc"/>
      <stop offset="1" stop-color="#eef5f8"/>
    </linearGradient>
    <linearGradient id="blue" x1="0" x2="1">
      <stop offset="0" stop-color="#dcecff"/>
      <stop offset="1" stop-color="#eef5ff"/>
    </linearGradient>
    <linearGradient id="green" x1="0" x2="1">
      <stop offset="0" stop-color="#def7f0"/>
      <stop offset="1" stop-color="#f1fbf8"/>
    </linearGradient>
    <linearGradient id="amber" x1="0" x2="1">
      <stop offset="0" stop-color="#fff1cb"/>
      <stop offset="1" stop-color="#fff9e8"/>
    </linearGradient>
    <filter id="shadow" x="-20%" y="-25%" width="140%" height="160%">
      <feDropShadow dx="0" dy="12" stdDeviation="10" flood-color="#172033" flood-opacity="0.12"/>
    </filter>
    <marker id="arrow" markerWidth="10" markerHeight="10" refX="8" refY="5" orient="auto" markerUnits="strokeWidth">
      <path d="M 0 0 L 10 5 L 0 10 z" fill="#22344f"/>
    </marker>
    <marker id="softArrow" markerWidth="9" markerHeight="9" refX="7" refY="4.5" orient="auto" markerUnits="strokeWidth">
      <path d="M 0 0 L 9 4.5 L 0 9 z" fill="#177f75"/>
    </marker>
    <style>
      .bg { fill: url(#bg); }
      .title { font: 700 34px system-ui, -apple-system, Segoe UI, sans-serif; fill: #172033; }
      .subtitle { font: 400 18px system-ui, -apple-system, Segoe UI, sans-serif; fill: #5d6b7c; }
      .label { font: 700 18px system-ui, -apple-system, Segoe UI, sans-serif; fill: #172033; }
      .small { font: 400 14px system-ui, -apple-system, Segoe UI, sans-serif; fill: #5d6b7c; }
      .tiny { font: 700 12px system-ui, -apple-system, Segoe UI, sans-serif; fill: #315d9c; letter-spacing: 0.04em; }
      .box { stroke: #cad6e3; stroke-width: 1.4; rx: 14; filter: url(#shadow); }
      .input { fill: url(#green); }
      .stage { fill: #ffffff; }
      .trainable { fill: url(#blue); stroke: #8fb2dc; }
      .head { fill: url(#amber); stroke: #dec074; }
      .arrow { stroke: #22344f; stroke-width: 2.2; fill: none; marker-end: url(#arrow); }
      .skip { stroke: #177f75; stroke-width: 2; fill: none; marker-end: url(#softArrow); stroke-dasharray: 7 7; }
      .cam { stroke: #9a3f51; stroke-width: 2.5; fill: none; marker-end: url(#arrow); }
      .badge { fill: #e4f5f1; stroke: #9fd7cc; stroke-width: 1; }
      .badge-text { font: 700 12px system-ui, -apple-system, Segoe UI, sans-serif; fill: #177f75; }
      .note { fill: #ffffff; stroke: #dbe3ec; stroke-width: 1.2; rx: 12; }
    </style>
  </defs>

  <rect class="bg" width="1500" height="720"/>
  <text x="54" y="62" class="title">ResNet50 visual representation for the XAI audit</text>
  <text x="54" y="94" class="subtitle">The classifier progressively compresses RGB spatial information, then attribution methods inspect pixels, gradients, activations and logits.</text>

  <g transform="translate(54 138)">
    <rect class="box input" x="0" y="0" width="156" height="132"/>
    <text class="label" x="18" y="34">RGB image</text>
    <text class="small" x="18" y="62">PIL convert("RGB")</text>
    <text class="small" x="18" y="86">3 x 224 x 224</text>
    <text class="small" x="18" y="110">normalized tensor</text>
  </g>

  <path class="arrow" d="M 210 204 L 252 204"/>

  <g transform="translate(258 138)">
    <rect class="box stage" x="0" y="0" width="156" height="132"/>
    <text class="label" x="18" y="34">Stem</text>
    <text class="small" x="18" y="62">Conv 7 x 7, s=2</text>
    <text class="small" x="18" y="86">BN + ReLU</text>
    <text class="small" x="18" y="110">MaxPool, s=2</text>
  </g>

  <path class="arrow" d="M 414 204 L 456 204"/>

  <g transform="translate(462 138)">
    <rect class="box stage" x="0" y="0" width="164" height="132"/>
    <text class="label" x="18" y="34">Layer1</text>
    <text class="small" x="18" y="62">3 bottleneck blocks</text>
    <text class="small" x="18" y="86">stride 1</text>
    <text class="small" x="18" y="110">256 x 56 x 56</text>
  </g>

  <path class="arrow" d="M 626 204 L 668 204"/>

  <g transform="translate(674 138)">
    <rect class="box stage" x="0" y="0" width="164" height="132"/>
    <text class="label" x="18" y="34">Layer2</text>
    <text class="small" x="18" y="62">4 bottleneck blocks</text>
    <text class="small" x="18" y="86">stride 2</text>
    <text class="small" x="18" y="110">512 x 28 x 28</text>
  </g>

  <path class="arrow" d="M 838 204 L 880 204"/>

  <g transform="translate(886 138)">
    <rect class="box trainable" x="0" y="0" width="164" height="132"/>
    <text class="label" x="18" y="34">Layer3</text>
    <text class="small" x="18" y="62">6 bottleneck blocks</text>
    <text class="small" x="18" y="86">stride 2</text>
    <text class="small" x="18" y="110">1024 x 14 x 14</text>
    <rect class="badge" x="82" y="14" width="64" height="22" rx="11"/>
    <text class="badge-text" x="93" y="29">trainable</text>
  </g>

  <path class="arrow" d="M 1050 204 L 1092 204"/>

  <g transform="translate(1098 138)">
    <rect class="box trainable" x="0" y="0" width="164" height="132"/>
    <text class="label" x="18" y="34">Layer4</text>
    <text class="small" x="18" y="62">3 bottleneck blocks</text>
    <text class="small" x="18" y="86">stride 2</text>
    <text class="small" x="18" y="110">2048 x 7 x 7</text>
    <rect class="badge" x="82" y="14" width="64" height="22" rx="11"/>
    <text class="badge-text" x="93" y="29">trainable</text>
  </g>

  <path class="arrow" d="M 1262 204 L 1304 204"/>

  <g transform="translate(1310 138)">
    <rect class="box head" x="0" y="0" width="136" height="132"/>
    <text class="label" x="18" y="34">Head</text>
    <text class="small" x="18" y="62">AvgPool</text>
    <text class="small" x="18" y="86">Linear fc</text>
    <text class="small" x="18" y="110">AwA2 logits</text>
  </g>

  <g transform="translate(116 326)">
    <rect class="note" x="0" y="0" width="360" height="90"/>
    <text class="label" x="18" y="32">Residual block</text>
    <text class="small" x="18" y="58">Main path learns F(x); skip path carries x.</text>
    <text class="small" x="18" y="78">Output: y = F(x) + x</text>
  </g>

  <path class="skip" d="M 528 276 C 528 330, 560 352, 626 352 C 690 352, 724 330, 724 276"/>
  <text class="small" x="558" y="374">identity skip when tensor shape is unchanged</text>

  <path class="skip" d="M 756 276 C 756 430, 874 456, 968 456 C 1066 456, 1180 430, 1180 276"/>
  <text class="small" x="792" y="478">1 x 1 projection skip when stride or channels change</text>

  <g transform="translate(604 522)">
    <rect class="note" x="0" y="0" width="330" height="108"/>
    <text class="label" x="18" y="32">Downsampling</text>
    <text class="small" x="18" y="58">Spatial size decreases by stride-2 stages.</text>
    <text class="small" x="18" y="80">224 -> 112 -> 56 -> 28 -> 14 -> 7</text>
    <text class="small" x="18" y="100">Channels increase from 3 to 2048.</text>
  </g>

  <g transform="translate(996 522)">
    <rect class="note" x="0" y="0" width="360" height="108"/>
    <text class="label" x="18" y="32">Upsampling for XAI</text>
    <text class="small" x="18" y="58">Grad-CAM and Score-CAM start at layer4.</text>
    <text class="small" x="18" y="80">The 7 x 7 map is resized to 224 x 224.</text>
    <text class="small" x="18" y="100">This is visualization, not segmentation.</text>
  </g>

  <path class="cam" d="M 1180 272 C 1196 382, 1148 472, 1168 516"/>
  <text class="tiny" x="1124" y="505">CAM TARGET</text>

  <g transform="translate(1310 326)">
    <rect class="note" x="0" y="0" width="136" height="90"/>
    <text class="label" x="18" y="32">Softmax</text>
    <text class="small" x="18" y="58">probabilities</text>
    <text class="small" x="18" y="78">argmax class</text>
  </g>

  <path class="arrow" d="M 1378 270 L 1378 320"/>

  <g transform="translate(54 522)">
    <rect class="note" x="0" y="0" width="488" height="108"/>
    <text class="label" x="18" y="32">Training policy used in the baseline</text>
    <text class="small" x="18" y="58">Frozen: stem, layer1, layer2. Fine-tuned: layer3, layer4, fc.</text>
    <text class="small" x="18" y="80">Regularization: AdamW weight decay, validation LR scheduler, early stopping.</text>
    <text class="small" x="18" y="100">No extra dropout in baseline ResNet50 head.</text>
  </g>
</svg>
